<?xml version="1.0" encoding="UTF-8"?>
<svg width="24px" height="24px" viewBox="0 0 24 24" version="1.1" xmlns="http://www.w3.org/2000/svg" xmlns:xlink="http://www.w3.org/1999/xlink">
    <!-- Generator: Sketch 61.2 (89653) - https://sketch.com -->
    <title>编组 2</title>
    <desc>Created with Sketch.</desc>
    <g id="闪光编程-所有页面整理-2020.5.21" stroke="none" stroke-width="1" fill="none" fill-rule="evenodd">
        <g id="g2-设计细节规范" transform="translate(-116.000000, -5022.000000)">
            <g id="编组备份" transform="translate(100.000000, 5014.000000)">
                <g id="05.Icon图标/反馈/16*16/错误" transform="translate(16.000000, 8.000000)">
                    <g id="编组-2">
                        <rect id="矩形" fill="#000000" fill-rule="nonzero" opacity="0" x="0" y="0" width="24" height="24"></rect>
                        <path d="M12.5,2 C6.7015625,2 2,6.7015625 2,12.5 C2,18.2984375 6.7015625,23 12.5,23 C18.2984375,23 23,18.2984375 23,12.5 C23,6.7015625 18.2984375,2 12.5,2 Z M15.8154556,17 L14.2929642,16.9928656 L12,14.1747919 L9.70934256,16.9904875 L8.18454441,16.9976219 C8.08304498,16.9976219 8,16.9143876 8,16.8073722 C8,16.7621879 8.01614764,16.7193817 8.0438293,16.6837099 L11.0449827,12.9976219 L8.0438293,9.31391201 C8.01614764,9.27824019 8,9.23543401 8,9.1902497 C8,9.08561237 8.08304498,9 8.18454441,9 L9.70934256,9.00713436 L12,11.8252081 L14.2906574,9.00951249 L15.8131488,9.00237812 C15.9146482,9.00237812 15.9976932,9.08561237 15.9976932,9.19262782 C15.9976932,9.23781213 15.9815456,9.28061831 15.9538639,9.31629013 L12.9573241,13 L15.9561707,16.686088 C15.9838524,16.7217598 16,16.764566 16,16.8097503 C16,16.9143876 15.916955,17 15.8154556,17 Z" id="形状" fill="#EB5757"></path>
                    </g>
                </g>
            </g>
        </g>
    </g>
</svg>