<?xml version="1.0" encoding="UTF-8"?>
<svg width="24px" height="24px" viewBox="0 0 24 24" version="1.1" xmlns="http://www.w3.org/2000/svg" xmlns:xlink="http://www.w3.org/1999/xlink">
    <!-- Generator: Sketch 61.2 (89653) - https://sketch.com -->
    <title>Icon/Fill/Check-Circle-Fill</title>
    <desc>Created with Sketch.</desc>
    <g id="闪光编程-所有页面整理-2020.5.21" stroke="none" stroke-width="1" fill="none" fill-rule="evenodd">
        <g id="g2-设计细节规范" transform="translate(-674.000000, -5022.000000)">
            <g id="Feedback/Message/Light/Success备份" transform="translate(658.000000, 5014.000000)">
                <g id="Icon/Fill/Check-Circle-Fill" transform="translate(16.000000, 8.000000)">
                    <rect id="矩形" fill="#000000" fill-rule="nonzero" opacity="0" x="0" y="0" width="24" height="24"></rect>
                    <path d="M12.4615385,0.923076923 C6.59938187,0.923076923 1.84615385,5.67630495 1.84615385,11.5384615 C1.84615385,17.4006181 6.59938187,22.1538462 12.4615385,22.1538462 C18.3236951,22.1538462 23.0769231,17.4006181 23.0769231,11.5384615 C23.0769231,5.67630495 18.3236951,0.923076923 12.4615385,0.923076923 Z M17.0465316,8.071875 L12.056353,14.990831 C11.7554258,15.4102335 11.1322459,15.4102335 10.8313187,14.990831 L7.87654533,10.8963255 C7.78650412,10.7707418 7.87654533,10.5953984 8.03056319,10.5953984 L9.14186126,10.5953984 C9.38355082,10.5953984 9.61339286,10.7115041 9.75556319,10.9105426 L11.4426511,13.251614 L15.1675137,8.08609203 C15.3096841,7.88942308 15.5371566,7.7709478 15.7812157,7.7709478 L16.8925137,7.7709478 C17.0465316,7.7709478 17.1365728,7.94629121 17.0465316,8.071875 Z" id="形状" fill="#13C0A2"></path>
                </g>
            </g>
        </g>
    </g>
</svg>