<?xml version="1.0" encoding="UTF-8"?>
<svg width="24px" height="24px" viewBox="0 0 24 24" version="1.1" xmlns="http://www.w3.org/2000/svg" xmlns:xlink="http://www.w3.org/1999/xlink">
    <!-- Generator: Sketch 61.2 (89653) - https://sketch.com -->
    <title>05.Icon图标/反馈/16*16/警示</title>
    <desc>Created with Sketch.</desc>
    <g id="闪光编程-所有页面整理-2020.5.21" stroke="none" stroke-width="1" fill="none" fill-rule="evenodd">
        <g id="g2-设计细节规范" transform="translate(-377.000000, -5021.000000)">
            <g id="编组备份" transform="translate(361.000000, 5014.000000)">
                <g id="05.Icon图标/反馈/16*16/警示" transform="translate(16.000000, 7.000000)">
                    <g id="编组-2">
                        <rect id="矩形" fill="#000000" fill-rule="nonzero" opacity="0" x="0" y="0" width="24" height="24"></rect>
                        <path d="M12,1.76431718 C6.2015625,1.76431718 1.5,6.46587968 1.5,12.2643172 C1.5,18.0627547 6.2015625,22.7643172 12,22.7643172 C17.7984375,22.7643172 22.5,18.0627547 22.5,12.2643172 C22.5,6.46587968 17.7984375,1.76431718 12,1.76431718 Z M11.25,7.20181718 C11.25,7.09869218 11.334375,7.01431718 11.4375,7.01431718 L12.5625,7.01431718 C12.665625,7.01431718 12.75,7.09869218 12.75,7.20181718 L12.75,13.5768172 C12.75,13.6799422 12.665625,13.7643172 12.5625,13.7643172 L11.4375,13.7643172 C11.334375,13.7643172 11.25,13.6799422 11.25,13.5768172 L11.25,7.20181718 Z M12,17.5143172 C11.3789062,17.5143172 10.875,17.0104109 10.875,16.3893172 C10.875,15.7682234 11.3789062,15.2643172 12,15.2643172 C12.6210938,15.2643172 13.125,15.7682234 13.125,16.3893172 C13.125,17.0104109 12.6210938,17.5143172 12,17.5143172 Z" id="形状" fill="#FFAA4A"></path>
                    </g>
                </g>
            </g>
        </g>
    </g>
</svg>